<?xml version="1.0" standalone="no"?><!DOCTYPE svg PUBLIC "-//W3C//DTD SVG 1.1//EN" "http://www.w3.org/Graphics/SVG/1.1/DTD/svg11.dtd"><svg t="1728293357931" class="icon" viewBox="0 0 1489 1024" version="1.1" xmlns="http://www.w3.org/2000/svg" p-id="4526" xmlns:xlink="http://www.w3.org/1999/xlink" width="290.8203125" height="200"><path d="M124.865864 0.000621A124.896894 124.896894 0 0 0 0 124.897515v399.732121a124.896894 124.896894 0 0 0 124.865864 124.896894h399.732121a124.989985 124.989985 0 0 0 122.973016-102.834362c-33.140344-14.335991-176.655408-76.334499-251.438393-112.019326-56.940572 68.949292-116.518717 110.31266-206.38242 110.31266-89.832673 0-149.783182-55.358027-142.584156-123.035077 4.747633-44.466397 35.250403-117.139323 167.687656-104.665148 69.756079 6.54739 101.717272 19.580109 158.626813 38.353431 14.739385-26.965317 26.965317-56.72336 36.243372-88.312189H157.354571v-25.010409h124.834834V197.415289H129.9238v-27.523862h152.296635v-64.853294s1.396363-10.115873 12.598295-10.115873h62.432932v74.938136h162.381478v27.554893h-162.381478v44.869791h132.468284a509.920661 509.920661 0 0 1-53.806513 134.888645c38.477552 13.932598 213.612477 67.459838 213.612476 67.459838V124.866484A124.958955 124.958955 0 0 0 524.597985 0.000621H124.865864z m-49.958758 417.10908c-5.026906 25.041439 9.991752 84.991948 104.913391 84.991949 58.461055 0 114.749991-35.529675 160.550691-95.200912-65.225657-31.68192-119.559685-47.259123-180.192861-47.259123-52.782513 0-80.275345 32.550768-85.271221 57.468086z" fill="#1677FF" p-id="4527"></path><path d="M995.234306 410.872614a24.451864 24.451864 0 0 1-32.457677-9.929691l-1.582545-3.506422-67.025414-147.052517a12.256962 12.256962 0 0 1 18.431989-15.018658L991.665823 291.685292a36.926038 36.926038 0 0 0 32.70592 3.723634l371.866926-165.515536C1329.585618 51.324711 1219.800473 0.000621 1095.586245 0.000621c-203.310422 0-368.112262 137.340038-368.112262 306.734359 0 92.439217 49.586394 175.631409 127.193135 231.858284a24.513925 24.513925 0 0 1 8.998783 27.834165l-16.570172 61.874387c-0.775757 2.885816-1.985938 5.895754-1.985938 8.936721 0 6.795632 5.49236 12.287993 12.287992 12.287993a13.653325 13.653325 0 0 0 7.074905-2.296241l80.585648-46.514396a38.477552 38.477552 0 0 1 19.549079-5.647512c3.754664 0 7.385208 0.558545 10.82957 1.613575 37.577674 10.798539 78.134256 16.818414 120.14926 16.818414 203.279392 0 368.081231-137.340038 368.081232-306.76539 0-51.29306-15.204839-99.638243-41.952945-142.118702L997.90291 409.29007l-2.668604 1.551514z" fill="#09BB07" p-id="4528"></path><path d="M283.492677 899.413409v106.806238h6.485329v-107.675086c8.843631-1.179151 17.656232-2.668604 26.499863-4.437331 11.170902 46.514396 41.48749 82.385405 91.198005 107.985389l3.816725-5.864723c-25.599984-12.660356-45.89379-28.268589-61.19172-46.483366 20.014533-11.201933 36.181311-22.372835 48.562394-34.133313l-3.847755-5.306178a227.917438 227.917438 0 0 1-49.12094 34.133312 140.474097 140.474097 0 0 1-24.141561-51.510272 379.252134 379.252134 0 0 0 58.554146-16.166778l-2.947877-5.895754c-49.431243 18.245807-114.749991 27.679014-195.956244 28.268589l2.079029 5.864724c36.460584 0 69.725049-2.047999 100.010606-5.585451z m-120.614715-144.477004v6.175027h27.058408v96.224911c-11.170902 1.179151-22.372835 2.047999-34.133313 2.947877l0.899878 6.48533a2172.026805 2172.026805 0 0 0 106.806239-11.481205v22.062532h6.175026v-22.962411c8.533328-1.179151 16.756353-2.637574 25.010409-3.816725v-6.485329c-7.943753 1.179151-16.197808 2.668604-25.010409 4.127028v-87.102008h23.831258v-6.175027h-130.637496zM196.111396 856.746768v-30.59586h67.397778v22.96241c-20.604109 2.916847-43.256216 5.275148-67.397778 7.63345z m0-37.08119V794.375897h67.397778v25.289681H196.111396z m0-31.464708v-27.089438h67.397778v27.089438H196.111396z m114.749991 1.179151l-4.685573 4.095997c18.804352 12.381083 36.181311 24.731137 51.789545 37.08119-15.918536 17.066656-34.443615 29.137437-55.916572 36.491614l2.637574 5.585452a140.567188 140.567188 0 0 0 57.964571-38.539613c14.708355 11.481205 27.679014 22.96241 39.439491 34.722888l4.4063-4.127028a545.046942 545.046942 0 0 0-40.029066-35.312464c13.249931-15.29793 24.451864-35.312463 33.543737-59.422994v-5.306179H305.275936v6.175027h87.970856a205.26533 205.26533 0 0 1-31.185436 55.016694 812.496962 812.496962 0 0 0-51.199969-36.460584z m-78.537649 126.510469a147.952395 147.952395 0 0 1-29.44774 20.014533c-11.170902 6.175027-25.010409 11.760478-41.48749 16.477081l3.847755 4.995876a259.568328 259.568328 0 0 0 42.356338-17.345929c9.991752-5.616481 20.014533-12.660356 30.006285-21.193684l-5.275148-2.947877z m21.752229 31.495738c-10.581327 9.712479-22.652107 18.245807-36.770887 25.879257a259.87863 259.87863 0 0 1-51.479241 20.604109l3.816725 5.585451a326.128287 326.128287 0 0 0 52.658392-21.783259 254.075967 254.075967 0 0 0 37.360462-27.058408l-5.585451-3.22715zM577.442559 741.407202c-35.591736 43.535489-80.027103 80.337406-133.585373 110.033387l2.947877 5.306179c55.016694-30.906163 99.452061-67.366747 132.995798-109.754115a433.182768 433.182768 0 0 0 131.816647 109.16454l3.22715-5.306179c-50.020818-26.748105-94.425155-63.239719-132.685496-109.443812h-4.716603z m89.150007 154.189482h-173.58341v110.622963h6.454299v-21.783259h160.674812v21.783259h6.454299v-110.622963z m-167.129111 82.385404V902.050983h160.674812v75.931105h-160.674812z m5.895754-138.891552v6.175027h148.883304v-6.175027h-148.883304zM869.344443 740.538354v43.845791h-119.187322v6.454299h119.187322v58.86445h-96.814487v6.175026h27.368711c4.4063 19.424958 12.660356 36.460584 25.010409 51.199969a228.693195 228.693195 0 0 0 42.077065 40.587612c-33.264465 22.062532-74.441652 39.718764-123.593622 52.658392l3.537453 5.306179c49.431243-13.529204 90.918733-31.464708 125.052045-54.427119 17.066656 11.481205 36.491614 22.062532 58.243843 31.495739 22.372835 9.091873 45.924821 17.066656 71.214503 23.520955l3.227149-5.306178a622.405441 622.405441 0 0 1-67.646019-22.062533 349.090698 349.090698 0 0 1-58.554147-30.875132c-0.310303-0.310303-0.589575-0.589575-0.899878-0.589576 35.312463-25.010409 61.781296-55.606269 79.437528-91.818611v-5.864723h-81.206254v-58.86445h122.104168v-6.454299h-122.104168v-43.845791h-6.454299z m3.227149 203.310422a188.91237 188.91237 0 0 1-38.539613-35.033191 120.862957 120.862957 0 0 1-27.679013-52.937665h143.608155c-17.066656 34.133313-42.976944 63.239719-77.389529 87.970856zM1105.019452 738.180052a366.84002 366.84002 0 0 1-71.493775 133.864646l1.768726 6.764602a366.80899 366.80899 0 0 0 46.483366-67.67705v196.266548h6.454299v-209.206176c8.843631-17.656232 16.197808-36.770887 22.683138-57.374996l-5.895754-2.637574z m17.935504 71.493775v6.485329h124.183197v160.923054c0 14.14981-5.585451 21.193684-16.787384 21.193684-12.629326 0-25.879257-0.279273-39.40846-0.589575l1.17915 6.175027h40.587612c13.529204 0 20.604109-8.533328 20.604109-25.01041v-162.69178h45.89379v-6.485329H1253.31318v-69.135473h-6.175027v69.135473h-124.183197z m19.735261 48.252092l-5.026906 3.227149c23.551986 27.089438 42.077065 52.099847 55.637299 74.751955l5.275148-3.816725c-12.939629-21.193684-31.464708-45.924821-55.885541-74.162379z" p-id="4529"></path></svg>