<svg data-v-0dd9719b="" version="1.0" xmlns="http://www.w3.org/2000/svg" xmlns:xlink="http://www.w3.org/1999/xlink" width="680" height="500" viewBox="0 0 340.000000 250.000000" preserveAspectRatio="xMidYMid meet" color-interpolation-filters="sRGB" style="">   <g data-v-0dd9719b="" class="iconmbgsvg" transform="translate(95.00000000021276,50)"><g fill="#6fa8dc" hollow-target="textRect"><g mask="url(#27b206c8-2960-4044-b75b-3f0e9cf5bf70)"><g><rect fill="#6fa8dc" fill-opacity="0" stroke-width="2" x="0" y="0" width="150" height="150" class="image-rect"></rect> <svg filter="url(#colors117709381)" x="0" y="0" width="150" height="150" filtersec="colorsf2909669062" class="image-svg-svg primary" style="overflow: visible;"><svg xmlns="http://www.w3.org/2000/svg" xmlns:xlink="http://www.w3.org/1999/xlink" xml:space="preserve" viewBox="0.0000040084123611450195 0 0.32059401273727417 0.32059401273727417" x="0px" y="0px" fill-rule="evenodd" clip-rule="evenodd"><defs></defs><g><path d="M0.160297 0c0.0885326,0 0.160301,0.0717686 0.160301,0.160301 0,0.0885247 -0.0717686,0.160293 -0.160301,0.160293 -0.0885247,0 -0.160293,-0.0717686 -0.160293,-0.160293 0,-0.0885326 0.0717686,-0.160301 0.160293,-0.160301zm0.0262011 0.179546l0.00146065 0.00359847 -0.0246145 0.0240121c0.0076812,0.00693709 0.0165396,0.01076 0.0246932,0.0116104 0.0125474,0.00129923 0.0239373,-0.00441738 0.0253546,-0.0179923l0.00416934 0.000429139c-0.00166144,0.0159175 -0.0150789,0.0232719 -0.0299531,0.0217286 -0.00905917,-0.000944893 -0.0188703,-0.00518117 -0.0272877,-0.0128624 -0.00841743,0.0076812 -0.0182246,0.0119175 -0.0272877,0.0128624 -0.0148703,0.00154333 -0.0282877,-0.00581109 -0.0299492,-0.0217286l0.00416541 -0.000429139c0.00142128,0.013575 0.0128072,0.0192916 0.0253586,0.0179923 0.00815364,-0.000850404 0.017012,-0.00467329 0.0246932,-0.0116104l-0.0246145 -0.0240121 0.00146065 -0.00359847c0.017449,0 0.0348981,0 0.052351,0zm-0.0261775 0.0247168l0.0210278 -0.0205199 -0.0420556 0 0.0210278 0.0205199zm-0.0453667 -0.0879932c-0.0140907,0 -0.0255121,0.0110001 -0.0255121,0.0245633 0,0.0135671 0.0114214,0.0245672 0.0255121,0.0245672 0.0140868,0 0.0255082,-0.0110001 0.0255082,-0.0245672 0,-0.0135632 -0.0114214,-0.0245633 -0.0255082,-0.0245633zm0.0199766 0.0236971c-0.00826782,0.0217798 -0.037965,0.00764183 -0.0280161,-0.0145592 -0.0341894,0.0313665 0.0255791,0.0552881 0.0280161,0.0145592zm0.0707174 -0.0236971c0.0140868,0 0.0255082,0.0110001 0.0255082,0.0245633 0,0.0135671 -0.0114214,0.0245672 -0.0255082,0.0245672 -0.0140868,0 -0.0255082,-0.0110001 -0.0255082,-0.0245672 0,-0.0135632 0.0114214,-0.0245633 0.0255082,-0.0245633zm-0.0199766 0.0236971c0.00826388,0.0217798 0.0379611,0.00764183 0.0280161,-0.0145592 0.0341855,0.0313665 -0.0255791,0.0552881 -0.0280161,0.0145592zm0.0343862 -0.0549141l0.0434021 -0.025642 0.00693709 0.00554338 -0.0167837 0.0517605c0.00945287,0.0144057 0.0146734,0.0311146 0.0146734,0.0483785 0,0.0575913 -0.0536778,0.0960917 -0.10799,0.0960917 -0.0543117,0 -0.107986,-0.0385005 -0.107986,-0.0960917 0,-0.0172719 0.00522054,-0.033965 0.0146773,-0.0483785l-0.0167837 -0.0517605 0.00693709 -0.00554338 0.0434021 0.025642c0.0180514,-0.0106852 0.0388115,-0.0160474 0.0597527,-0.0160474 0.0209373,0 0.041717,0.00536227 0.0597606,0.0160474zm0.0374335 -0.0110749l-0.0375438 0.0221814c-0.0186931,-0.0117757 -0.0374375,-0.0176341 -0.0596503,-0.0176341 -0.0222247,0 -0.0409414,0.00586228 -0.0596503,0.0176341l-0.0375359 -0.0221814 0.0143427 0.0442446c-0.0100552,0.0145277 -0.0156183,0.0290476 -0.0156183,0.0468707 0,0.0523195 0.0494061,0.086568 0.0984618,0.086568 0.0490557,0 0.0984658,-0.0342485 0.0984658,-0.086568 0,-0.0178034 -0.00555912,-0.0323587 -0.0156183,-0.0468707l0.0143466 -0.0442446z"></path></g></svg></svg> <defs><filter id="colors117709381"><feColorMatrix type="matrix" values="0 0 0 0 0.43359375  0 0 0 0 0.65625  0 0 0 0 0.859375  0 0 0 1 0" class="icon-fecolormatrix"></feColorMatrix></filter> <filter id="colorsf2909669062"><feColorMatrix type="matrix" values="0 0 0 0 0.99609375  0 0 0 0 0.99609375  0 0 0 0 0.99609375  0 0 0 1 0" class="icon-fecolormatrix"></feColorMatrix></filter> <filter id="colorsb6808011416"><feColorMatrix type="matrix" values="0 0 0 0 0  0 0 0 0 0  0 0 0 0 0  0 0 0 1 0" class="icon-fecolormatrix"></feColorMatrix></filter></defs></g></g> <g transform="translate(2.149993896484375,43.79375076293945)"><g data-gra="path-name" fill-rule="" class="tp-name" transform="translate(0,0)"><g transform="scale(1)"><g><path d="M21.09-41.21L21.09-41.21Q24.22-40.23 26.17-38.87L26.17-38.87Q26.17-38.67 25.59-38.48L25.59-38.48Q24.22-37.89 23.83-36.91L23.83-36.91Q23.24-35.94 22.27-33.4L22.27-33.4Q21.88-32.42 21.68-32.03L21.68-32.03 40.43-32.03 42.58-35.16 47.27-31.25 47.27-30.86 21.09-30.86Q18.55-25.98 15.82-22.07L15.82-22.07 16.99-21.29 25.59-21.29 25.59-28.71Q30.08-26.95 30.08-26.56L30.08-26.56Q30.08-26.56 29.49-26.17L29.49-26.17Q28.71-25.78 28.71-25.59L28.71-25.59 28.71-21.29 37.7-21.29Q37.89-21.29 38.87-22.85L38.87-22.85Q39.65-23.63 39.65-23.63L39.65-23.63Q41.8-22.07 43.16-20.9L43.16-20.9Q43.16-20.9 42.77-20.51L42.77-20.51Q41.6-19.92 41.6-19.53L41.6-19.53 41.6-5.47Q41.6-1.37 36.33-0.2L36.33-0.2Q36.33-0.2 36.33-0.39L36.33-0.39Q36.52-3.13 30.47-4.88L30.47-4.88 30.66-5.47Q38.28-4.49 38.48-5.47L38.48-5.47 38.48-20.12 28.71-20.12 28.71 4.88Q26.95 6.05 25.2 6.25L25.2 6.25 25.59-20.12 18.16-20.12Q16.6-20.12 16.6-17.97L16.6-17.97 16.6-0.78Q15.23 0.2 13.28 0.59L13.28 0.59Q13.28-1.76 13.48-6.25L13.48-6.25Q13.87-14.26 13.87-19.14L13.87-19.14Q9.57-13.48 2.73-7.03L2.73-7.03 2.15-7.42Q12.89-19.34 17.58-30.86L17.58-30.86 5.86-30.86 3.32-30.27 2.15-32.03 18.16-32.03Q18.55-33.01 19.14-34.57L19.14-34.57Q20.51-38.87 21.09-41.21ZM90.43-35.55L92.97-38.48 97.85-34.77 97.66-34.18 76.95-34.18Q76.95-12.5 76.76 0.78L76.76 0.78Q76.17 3.91 71.09 4.88L71.09 4.88Q71.09 1.56 63.67-0.39L63.67-0.39 63.67-0.98Q73.44 0.59 72.85-0.39L72.85-0.39Q73.05-3.91 73.24-17.77L73.24-17.77Q73.24-28.52 73.05-34.18L73.05-34.18 56.25-34.18 53.91-33.59 53.13-35.55 90.43-35.55ZM125-31.05L125-41.02 129.69-38.67Q127.73-37.3 127.73-37.11L127.73-37.11 127.73-31.05 134.77-31.05 134.77-40.82 139.65-38.67Q139.65-38.67 138.87-38.09L138.87-38.09Q137.7-37.5 137.7-37.3L137.7-37.3 137.7-31.05 141.99-31.05 143.95-33.79 147.85-30.27 147.66-29.88 137.7-29.88 137.7-24.02Q136.33-23.24 134.57-23.05L134.57-23.05 134.77-29.88 127.73-29.88 127.93-24.02Q127.15-23.24 125-22.85L125-22.85 125-29.88 118.75-29.88 116.41-29.69 115.23-31.05 125-31.05ZM115.63-39.65L115.63-39.65Q116.21-39.26 117.19-38.48L117.19-38.48Q119.92-36.33 119.53-36.13L119.53-36.13Q119.34-35.94 118.95-35.94L118.95-35.94Q117.58-36.13 116.6-35.16L116.6-35.16Q116.02-34.77 114.65-33.01L114.65-33.01Q113.09-31.45 112.11-30.27L112.11-30.27Q115.04-24.8 115.43-13.67L115.43-13.67Q116.8 4.3 108.2 5.47L108.2 5.47Q108.01 5.47 108.01 5.08L108.01 5.08Q108.01 1.95 102.54 0.39L102.54 0.39 102.73-0.2Q108.79 1.17 110.16 0.59L110.16 0.59Q113.48-0.98 112.7-18.36L112.7-18.36Q107.42-11.33 101.17-5.47L101.17-5.47 100.59-6.05Q108.2-14.26 112.11-23.63L112.11-23.63Q111.72-26.37 110.55-28.71L110.55-28.71Q106.05-24.61 101.37-21.68L101.37-21.68 100.98-22.27Q105.47-25.78 109.38-30.86L109.38-30.86Q107.62-33.59 102.73-36.72L102.73-36.72 103.13-37.3Q106.84-35.74 110.55-32.42L110.55-32.42Q113.09-34.96 115.63-39.65ZM140.82-22.46L140.82-22.46Q143.75-20.9 145.12-19.34L145.12-19.34Q144.92-19.14 143.75-18.55L143.75-18.55Q142.97-17.97 142.97-17.97L142.97-17.97Q143.16-14.45 143.16-7.03L143.16-7.03Q143.36-0.2 143.36 3.71L143.36 3.71Q142.19 4.69 140.04 4.88L140.04 4.88 140.04 0.98 123.05 0.98 123.05 4.88Q121.48 5.86 119.92 5.66L119.92 5.66Q120.12-10.55 120.31-22.07L120.31-22.07 123.63-20.12 139.06-20.12Q139.26-20.12 140.04-21.29L140.04-21.29Q140.82-22.46 140.82-22.46ZM129.88-10.35L129.88-18.95 124.61-18.95Q123.05-18.95 123.05-17.38L123.05-17.38Q123.05-17.19 123.05-16.99L123.05-16.99 123.05-10.35 129.88-10.35ZM140.04-18.95L132.62-18.95 132.62-10.35 140.04-10.35 140.04-18.95ZM129.88-9.38L123.05-9.38 123.05-0.2 129.88-0.2 129.88-9.38ZM140.04-0.2L140.04-9.38 132.62-9.38 132.62-0.2 140.04-0.2Z" transform="translate(-2.1500000953674316, 41.209999084472656)"></path></g> <!----> <!----> <!----> <!----> <!----> <!----> <!----></g></g> <g data-gra="path-slogan" fill-rule="" class="tp-slogan" fill="#6fa8dc" transform="translate(5,53.459999084472656)"><rect x="0" height="1" y="3.9750008583068848" width="28.520004272460938"></rect> <rect height="1" y="3.9750008583068848" width="28.520004272460938" x="107.18000793457031"></rect> <g transform="translate(31.520004272460938,0)"><g transform="scale(1)"><path d="M4.13-7.64L2.06-7.64L2.06-4.97L4.13-4.97Q5.95-4.92 5.91-6.38L5.91-6.38Q5.91-7.64 4.13-7.64L4.13-7.64ZM4.59 0L0.89 0L0.89-8.58L4.69-8.58Q6.98-8.48 7.08-6.42L7.08-6.42Q7.08-5.16 5.95-4.64L5.95-4.64Q7.55-4.08 7.55-2.53L7.55-2.53Q7.41-0.09 4.59 0L4.59 0ZM4.31-3.98L2.06-3.98L2.06-0.98L4.55-0.98Q6.33-1.03 6.38-2.53L6.38-2.53Q6.38-3.98 4.31-3.98L4.31-3.98ZM14.53-3.19L14.53-8.58L15.70-8.58L15.70-3.05Q15.56 0.05 12.19 0.14L12.19 0.14Q9.05 0.05 8.91-2.86L8.91-2.86L8.91-8.58L10.08-8.58L10.08-3.19Q10.13-0.84 12.23-0.80L12.23-0.80Q14.53-0.84 14.53-3.19L14.53-3.19ZM21 0L17.53 0L17.53-8.58L21.05-8.58Q24.52-8.39 24.66-4.41L24.66-4.41Q24.47-0.09 21 0L21 0ZM20.86-7.64L18.70-7.64L18.70-0.98L20.95-0.98Q23.39-1.13 23.48-4.31L23.48-4.31Q23.44-7.55 20.86-7.64L20.86-7.64ZM26.30-8.58L27.47-8.58L27.47 0L26.30 0L26.30-8.58ZM30.84-8.58L35.16-1.64L35.16-8.58L36.28-8.58L36.28 0L34.97 0L30.61-6.94L30.56-6.94L30.56 0L29.44 0L29.44-8.58L30.84-8.58ZM44.48-3.61L41.86-3.61L41.86-4.59L45.61-4.59L45.61 0L44.86 0L44.58-1.08Q43.59 0.09 41.77 0.14L41.77 0.14Q40.03 0.14 39.09-0.75L39.09-0.75Q37.69-2.06 37.73-4.36L37.73-4.36Q38.06-8.63 41.81-8.81L41.81-8.81Q45-8.63 45.47-6L45.47-6L44.34-6Q43.88-7.78 41.77-7.83L41.77-7.83Q39.09-7.64 38.95-4.31L38.95-4.31Q38.95-0.75 41.81-0.75L41.81-0.75Q42.84-0.75 43.59-1.31L43.59-1.31Q44.53-2.06 44.48-3.61L44.48-3.61ZM57.89-6.05L57.89-6.05L56.77-6.05Q56.34-7.78 54.38-7.83L54.38-7.83Q51.66-7.69 51.56-4.36L51.56-4.36Q51.56-0.80 54.42-0.80L54.42-0.80Q56.39-0.84 56.86-3.19L56.86-3.19L57.98-3.19Q57.47 0.05 54.19 0.14L54.19 0.14Q50.44 0 50.34-4.31L50.34-4.31Q50.53-8.63 54.38-8.81L54.38-8.81Q57.42-8.72 57.89-6.05ZM65.02 0L64.17-2.48L60.70-2.48L59.81 0L58.64 0L61.88-8.58L63.19-8.58L66.28 0L65.02 0ZM62.44-7.31L61.08-3.52L63.75-3.52L62.48-7.31L62.44-7.31ZM69.52-7.59L66.61-7.59L66.61-8.58L73.55-8.58L73.55-7.59L70.64-7.59L70.64 0L69.52 0L69.52-7.59Z" transform="translate(-0.890625, 8.8125)"></path></g></g></g></g></g></g><mask id="27b206c8-2960-4044-b75b-3f0e9cf5bf70"><g fill="white"><g><rect fill-opacity="1" stroke-width="2" x="0" y="0" width="150" height="150" class="image-rect"></rect> <svg x="0" y="0" width="150" height="150" class="image-svg-svg primary" style="overflow: visible;" filter="url(#colorsf2909669062)"><svg xmlns="http://www.w3.org/2000/svg" xmlns:xlink="http://www.w3.org/1999/xlink" xml:space="preserve" viewBox="0.0000040084123611450195 0 0.32059401273727417 0.32059401273727417" x="0px" y="0px" fill-rule="evenodd" clip-rule="evenodd"><defs></defs><g><path d="M0.160297 0c0.0885326,0 0.160301,0.0717686 0.160301,0.160301 0,0.0885247 -0.0717686,0.160293 -0.160301,0.160293 -0.0885247,0 -0.160293,-0.0717686 -0.160293,-0.160293 0,-0.0885326 0.0717686,-0.160301 0.160293,-0.160301zm0.0262011 0.179546l0.00146065 0.00359847 -0.0246145 0.0240121c0.0076812,0.00693709 0.0165396,0.01076 0.0246932,0.0116104 0.0125474,0.00129923 0.0239373,-0.00441738 0.0253546,-0.0179923l0.00416934 0.000429139c-0.00166144,0.0159175 -0.0150789,0.0232719 -0.0299531,0.0217286 -0.00905917,-0.000944893 -0.0188703,-0.00518117 -0.0272877,-0.0128624 -0.00841743,0.0076812 -0.0182246,0.0119175 -0.0272877,0.0128624 -0.0148703,0.00154333 -0.0282877,-0.00581109 -0.0299492,-0.0217286l0.00416541 -0.000429139c0.00142128,0.013575 0.0128072,0.0192916 0.0253586,0.0179923 0.00815364,-0.000850404 0.017012,-0.00467329 0.0246932,-0.0116104l-0.0246145 -0.0240121 0.00146065 -0.00359847c0.017449,0 0.0348981,0 0.052351,0zm-0.0261775 0.0247168l0.0210278 -0.0205199 -0.0420556 0 0.0210278 0.0205199zm-0.0453667 -0.0879932c-0.0140907,0 -0.0255121,0.0110001 -0.0255121,0.0245633 0,0.0135671 0.0114214,0.0245672 0.0255121,0.0245672 0.0140868,0 0.0255082,-0.0110001 0.0255082,-0.0245672 0,-0.0135632 -0.0114214,-0.0245633 -0.0255082,-0.0245633zm0.0199766 0.0236971c-0.00826782,0.0217798 -0.037965,0.00764183 -0.0280161,-0.0145592 -0.0341894,0.0313665 0.0255791,0.0552881 0.0280161,0.0145592zm0.0707174 -0.0236971c0.0140868,0 0.0255082,0.0110001 0.0255082,0.0245633 0,0.0135671 -0.0114214,0.0245672 -0.0255082,0.0245672 -0.0140868,0 -0.0255082,-0.0110001 -0.0255082,-0.0245672 0,-0.0135632 0.0114214,-0.0245633 0.0255082,-0.0245633zm-0.0199766 0.0236971c0.00826388,0.0217798 0.0379611,0.00764183 0.0280161,-0.0145592 0.0341855,0.0313665 -0.0255791,0.0552881 -0.0280161,0.0145592zm0.0343862 -0.0549141l0.0434021 -0.025642 0.00693709 0.00554338 -0.0167837 0.0517605c0.00945287,0.0144057 0.0146734,0.0311146 0.0146734,0.0483785 0,0.0575913 -0.0536778,0.0960917 -0.10799,0.0960917 -0.0543117,0 -0.107986,-0.0385005 -0.107986,-0.0960917 0,-0.0172719 0.00522054,-0.033965 0.0146773,-0.0483785l-0.0167837 -0.0517605 0.00693709 -0.00554338 0.0434021 0.025642c0.0180514,-0.0106852 0.0388115,-0.0160474 0.0597527,-0.0160474 0.0209373,0 0.041717,0.00536227 0.0597606,0.0160474zm0.0374335 -0.0110749l-0.0375438 0.0221814c-0.0186931,-0.0117757 -0.0374375,-0.0176341 -0.0596503,-0.0176341 -0.0222247,0 -0.0409414,0.00586228 -0.0596503,0.0176341l-0.0375359 -0.0221814 0.0143427 0.0442446c-0.0100552,0.0145277 -0.0156183,0.0290476 -0.0156183,0.0468707 0,0.0523195 0.0494061,0.086568 0.0984618,0.086568 0.0490557,0 0.0984658,-0.0342485 0.0984658,-0.086568 0,-0.0178034 -0.00555912,-0.0323587 -0.0156183,-0.0468707l0.0143466 -0.0442446z"></path></g></svg></svg> <defs>  </defs></g></g> <g transform="translate(2.149993896484375,43.79375076293945)"><rect fill="black" fill-opacity="1" x="-3.5" y="-3.5" width="152.70001220703125" height="54.459999084472656"></rect><rect fill="black" fill-opacity="1" x="-3.5" y="-3.5" transform="translate(5,53.459999084472656)" width="142.70001220703125" height="15.95000171661377"></rect></g><g transform="translate(2.149993896484375,43.79375076293945)" fill="black"><g data-gra="path-name" fill-rule="" class="tp-name" transform="translate(0,0)"><g transform="scale(1)"><g><path d="M21.09-41.21L21.09-41.21Q24.22-40.23 26.17-38.87L26.17-38.87Q26.17-38.67 25.59-38.48L25.59-38.48Q24.22-37.89 23.83-36.91L23.83-36.91Q23.24-35.94 22.27-33.4L22.27-33.4Q21.88-32.42 21.68-32.03L21.68-32.03 40.43-32.03 42.58-35.16 47.27-31.25 47.27-30.86 21.09-30.86Q18.55-25.98 15.82-22.07L15.82-22.07 16.99-21.29 25.59-21.29 25.59-28.71Q30.08-26.95 30.08-26.56L30.08-26.56Q30.08-26.56 29.49-26.17L29.49-26.17Q28.71-25.78 28.71-25.59L28.71-25.59 28.71-21.29 37.7-21.29Q37.89-21.29 38.87-22.85L38.87-22.85Q39.65-23.63 39.65-23.63L39.65-23.63Q41.8-22.07 43.16-20.9L43.16-20.9Q43.16-20.9 42.77-20.51L42.77-20.51Q41.6-19.92 41.6-19.53L41.6-19.53 41.6-5.47Q41.6-1.37 36.33-0.2L36.33-0.2Q36.33-0.2 36.33-0.39L36.33-0.39Q36.52-3.13 30.47-4.88L30.47-4.88 30.66-5.47Q38.28-4.49 38.48-5.47L38.48-5.47 38.48-20.12 28.71-20.12 28.71 4.88Q26.95 6.05 25.2 6.25L25.2 6.25 25.59-20.12 18.16-20.12Q16.6-20.12 16.6-17.97L16.6-17.97 16.6-0.78Q15.23 0.2 13.28 0.59L13.28 0.59Q13.28-1.76 13.48-6.25L13.48-6.25Q13.87-14.26 13.87-19.14L13.87-19.14Q9.57-13.48 2.73-7.03L2.73-7.03 2.15-7.42Q12.89-19.34 17.58-30.86L17.58-30.86 5.86-30.86 3.32-30.27 2.15-32.03 18.16-32.03Q18.55-33.01 19.14-34.57L19.14-34.57Q20.51-38.87 21.09-41.21ZM90.43-35.55L92.97-38.48 97.85-34.77 97.66-34.18 76.95-34.18Q76.95-12.5 76.76 0.78L76.76 0.78Q76.17 3.91 71.09 4.88L71.09 4.88Q71.09 1.56 63.67-0.39L63.67-0.39 63.67-0.98Q73.44 0.59 72.85-0.39L72.85-0.39Q73.05-3.91 73.24-17.77L73.24-17.77Q73.24-28.52 73.05-34.18L73.05-34.18 56.25-34.18 53.91-33.59 53.13-35.55 90.43-35.55ZM125-31.05L125-41.02 129.69-38.67Q127.73-37.3 127.73-37.11L127.73-37.11 127.73-31.05 134.77-31.05 134.77-40.82 139.65-38.67Q139.65-38.67 138.87-38.09L138.87-38.09Q137.7-37.5 137.7-37.3L137.7-37.3 137.7-31.05 141.99-31.05 143.95-33.79 147.85-30.27 147.66-29.88 137.7-29.88 137.7-24.02Q136.33-23.24 134.57-23.05L134.57-23.05 134.77-29.88 127.73-29.88 127.93-24.02Q127.15-23.24 125-22.85L125-22.85 125-29.88 118.75-29.88 116.41-29.69 115.23-31.05 125-31.05ZM115.63-39.65L115.63-39.65Q116.21-39.26 117.19-38.48L117.19-38.48Q119.92-36.33 119.53-36.13L119.53-36.13Q119.34-35.94 118.95-35.94L118.95-35.94Q117.58-36.13 116.6-35.16L116.6-35.16Q116.02-34.77 114.65-33.01L114.65-33.01Q113.09-31.45 112.11-30.27L112.11-30.27Q115.04-24.8 115.43-13.67L115.43-13.67Q116.8 4.3 108.2 5.47L108.2 5.47Q108.01 5.47 108.01 5.08L108.01 5.08Q108.01 1.95 102.54 0.39L102.54 0.39 102.73-0.2Q108.79 1.17 110.16 0.59L110.16 0.59Q113.48-0.98 112.7-18.36L112.7-18.36Q107.42-11.33 101.17-5.47L101.17-5.47 100.59-6.05Q108.2-14.26 112.11-23.63L112.11-23.63Q111.72-26.37 110.55-28.71L110.55-28.71Q106.05-24.61 101.37-21.68L101.37-21.68 100.98-22.27Q105.47-25.78 109.38-30.86L109.38-30.86Q107.62-33.59 102.73-36.72L102.73-36.72 103.13-37.3Q106.84-35.74 110.55-32.42L110.55-32.42Q113.09-34.96 115.63-39.65ZM140.82-22.46L140.82-22.46Q143.75-20.9 145.12-19.34L145.12-19.34Q144.92-19.14 143.75-18.55L143.75-18.55Q142.97-17.97 142.97-17.97L142.97-17.97Q143.16-14.45 143.16-7.03L143.16-7.03Q143.36-0.2 143.36 3.71L143.36 3.71Q142.19 4.69 140.04 4.88L140.04 4.88 140.04 0.98 123.05 0.98 123.05 4.88Q121.48 5.86 119.92 5.66L119.92 5.66Q120.12-10.55 120.31-22.07L120.31-22.07 123.63-20.12 139.06-20.12Q139.26-20.12 140.04-21.29L140.04-21.29Q140.82-22.46 140.82-22.46ZM129.88-10.35L129.88-18.95 124.61-18.95Q123.05-18.95 123.05-17.38L123.05-17.38Q123.05-17.19 123.05-16.99L123.05-16.99 123.05-10.35 129.88-10.35ZM140.04-18.95L132.62-18.95 132.62-10.35 140.04-10.35 140.04-18.95ZM129.88-9.38L123.05-9.38 123.05-0.2 129.88-0.2 129.88-9.38ZM140.04-0.2L140.04-9.38 132.62-9.38 132.62-0.2 140.04-0.2Z" transform="translate(-2.1500000953674316, 41.209999084472656)"></path></g>       </g></g> <g data-gra="path-slogan" fill-rule="" class="tp-slogan" transform="translate(5,53.459999084472656)" fill="white"><rect x="0" height="1" y="3.9750008583068848" width="28.520004272460938"></rect> <rect height="1" y="3.9750008583068848" width="28.520004272460938" x="107.18000793457031"></rect> <g transform="translate(31.520004272460938,0)"><g transform="scale(1)"><path d="M4.13-7.64L2.06-7.64L2.06-4.97L4.13-4.97Q5.95-4.92 5.91-6.38L5.91-6.38Q5.91-7.64 4.13-7.64L4.13-7.64ZM4.59 0L0.89 0L0.89-8.58L4.69-8.58Q6.98-8.48 7.08-6.42L7.08-6.42Q7.08-5.16 5.95-4.64L5.95-4.64Q7.55-4.08 7.55-2.53L7.55-2.53Q7.41-0.09 4.59 0L4.59 0ZM4.31-3.98L2.06-3.98L2.06-0.98L4.55-0.98Q6.33-1.03 6.38-2.53L6.38-2.53Q6.38-3.98 4.31-3.98L4.31-3.98ZM14.53-3.19L14.53-8.58L15.70-8.58L15.70-3.05Q15.56 0.05 12.19 0.14L12.19 0.14Q9.05 0.05 8.91-2.86L8.91-2.86L8.91-8.58L10.08-8.58L10.08-3.19Q10.13-0.84 12.23-0.80L12.23-0.80Q14.53-0.84 14.53-3.19L14.53-3.19ZM21 0L17.53 0L17.53-8.58L21.05-8.58Q24.52-8.39 24.66-4.41L24.66-4.41Q24.47-0.09 21 0L21 0ZM20.86-7.64L18.70-7.64L18.70-0.98L20.95-0.98Q23.39-1.13 23.48-4.31L23.48-4.31Q23.44-7.55 20.86-7.64L20.86-7.64ZM26.30-8.58L27.47-8.58L27.47 0L26.30 0L26.30-8.58ZM30.84-8.58L35.16-1.64L35.16-8.58L36.28-8.58L36.28 0L34.97 0L30.61-6.94L30.56-6.94L30.56 0L29.44 0L29.44-8.58L30.84-8.58ZM44.48-3.61L41.86-3.61L41.86-4.59L45.61-4.59L45.61 0L44.86 0L44.58-1.08Q43.59 0.09 41.77 0.14L41.77 0.14Q40.03 0.14 39.09-0.75L39.09-0.75Q37.69-2.06 37.73-4.36L37.73-4.36Q38.06-8.63 41.81-8.81L41.81-8.81Q45-8.63 45.47-6L45.47-6L44.34-6Q43.88-7.78 41.77-7.83L41.77-7.83Q39.09-7.64 38.95-4.31L38.95-4.31Q38.95-0.75 41.81-0.75L41.81-0.75Q42.84-0.75 43.59-1.31L43.59-1.31Q44.53-2.06 44.48-3.61L44.48-3.61ZM57.89-6.05L57.89-6.05L56.77-6.05Q56.34-7.78 54.38-7.83L54.38-7.83Q51.66-7.69 51.56-4.36L51.56-4.36Q51.56-0.80 54.42-0.80L54.42-0.80Q56.39-0.84 56.86-3.19L56.86-3.19L57.98-3.19Q57.47 0.05 54.19 0.14L54.19 0.14Q50.44 0 50.34-4.31L50.34-4.31Q50.53-8.63 54.38-8.81L54.38-8.81Q57.42-8.72 57.89-6.05ZM65.02 0L64.17-2.48L60.70-2.48L59.81 0L58.64 0L61.88-8.58L63.19-8.58L66.28 0L65.02 0ZM62.44-7.31L61.08-3.52L63.75-3.52L62.48-7.31L62.44-7.31ZM69.52-7.59L66.61-7.59L66.61-8.58L73.55-8.58L73.55-7.59L70.64-7.59L70.64 0L69.52 0L69.52-7.59Z" transform="translate(-0.890625, 8.8125)"></path></g></g></g></g></mask><defs v-gra="od"></defs></svg>